<svg width="1280" height="375" viewBox="0 0 1280 375" fill="none" xmlns="http://www.w3.org/2000/svg">
<path fill-rule="evenodd" clip-rule="evenodd" d="M-169.498 333.417L-135.611 313.583C-97.9441 293.68 -30.1694 254.012 41.6059 247.909C109.618 244.276 181.598 269.403 249.658 272.977C321.496 276.483 393.177 255.966 461.141 245.126C532.9 236.62 600.928 235.39 672.814 246.103C740.936 259.287 812.933 286.816 884.74 285.518C952.768 284.287 1024.38 254.16 1092.18 216.894C1163.73 177.158 1231.46 130.282 1269.09 105.575L1302.95 80.9362L1304.8 362.013L1270.78 362.628C1232.99 363.312 1164.96 364.542 1093.16 365.841C1025.13 367.071 953.321 368.37 885.293 369.6C813.486 370.899 741.679 372.198 673.652 373.428C601.845 374.727 533.817 375.957 462.01 377.256C393.983 378.486 322.176 379.785 250.369 381.084C182.341 382.314 110.534 383.613 42.5068 384.843C-29.3001 386.142 -97.3277 387.373 -135.121 388.056L-169.135 388.671L-169.498 333.417Z" fill="url(#paint0_linear_63_970)"/>
<g filter="url(#filter0_d_63_970)">
<path fill-rule="evenodd" clip-rule="evenodd" d="M-7.35692 364.265L23.1729 348.87C57.0716 333.52 118.131 302.73 182.193 299.629C242.86 298.458 306.582 321.027 367.171 325.78C431.128 330.578 495.347 315.63 556.093 308.535C620.181 303.46 680.822 304.264 744.701 314.985C805.185 327.637 868.88 352.181 932.89 353.029C993.531 353.833 1057.85 330.986 1118.89 302.171C1183.32 271.426 1244.45 234.712 1278.41 215.412L1308.99 196.068L1305.93 427.097L1275.61 426.695C1241.92 426.249 1181.27 425.445 1117.27 424.596C1056.62 423.793 992.615 422.944 931.974 422.14C867.964 421.292 803.954 420.443 743.313 419.639C679.304 418.791 618.663 417.987 554.653 417.139C494.012 416.335 430.003 415.486 365.993 414.638C305.352 413.834 241.342 412.985 180.701 412.182C116.692 411.333 56.0508 410.529 22.3615 410.083L-7.95894 409.681L-7.35692 364.265Z" fill="url(#paint1_linear_63_970)"/>
<path fill-rule="evenodd" clip-rule="evenodd" d="M-7.35692 364.265L23.1729 348.87C57.0716 333.52 118.131 302.73 182.193 299.629C242.86 298.458 306.582 321.027 367.171 325.78C431.128 330.578 495.347 315.63 556.093 308.535C620.181 303.46 680.822 304.264 744.701 314.985C805.185 327.637 868.88 352.181 932.89 353.029C993.531 353.833 1057.85 330.986 1118.89 302.171C1183.32 271.426 1244.45 234.712 1278.41 215.412L1308.99 196.068L1305.93 427.097L1275.61 426.695C1241.92 426.249 1181.27 425.445 1117.27 424.596C1056.62 423.793 992.615 422.944 931.974 422.14C867.964 421.292 803.954 420.443 743.313 419.639C679.304 418.791 618.663 417.987 554.653 417.139C494.012 416.335 430.003 415.486 365.993 414.638C305.352 413.834 241.342 412.985 180.701 412.182C116.692 411.333 56.0508 410.529 22.3615 410.083L-7.95894 409.681L-7.35692 364.265Z" stroke="black"/>
</g>
<defs>
<filter id="filter0_d_63_970" x="-46.959" y="155.068" width="1394.95" height="309.029" filterUnits="userSpaceOnUse" color-interpolation-filters="sRGB">
<feFlood flood-opacity="0" result="BackgroundImageFix"/>
<feColorMatrix in="SourceAlpha" type="matrix" values="0 0 0 0 0 0 0 0 0 0 0 0 0 0 0 0 0 0 127 0" result="hardAlpha"/>
<feOffset dy="-2"/>
<feGaussianBlur stdDeviation="19.5"/>
<feComposite in2="hardAlpha" operator="out"/>
<feColorMatrix type="matrix" values="0 0 0 0 0.968627 0 0 0 0 0.968627 0 0 0 0 0.968627 0 0 0 1 0"/>
<feBlend mode="normal" in2="BackgroundImageFix" result="effect1_dropShadow_63_970"/>
<feBlend mode="normal" in="SourceGraphic" in2="effect1_dropShadow_63_970" result="shape"/>
</filter>
<linearGradient id="paint0_linear_63_970" x1="565.982" y1="94.2653" x2="571.064" y2="375.284" gradientUnits="userSpaceOnUse">
<stop stop-color="#F54874"/>
<stop offset="1" stop-color="#EB008B"/>
</linearGradient>
<linearGradient id="paint1_linear_63_970" x1="652.046" y1="187.36" x2="648.983" y2="418.389" gradientUnits="userSpaceOnUse">
<stop stop-color="#F54874"/>
<stop offset="1" stop-color="#EB008B"/>
</linearGradient>
</defs>
</svg>
