<svg width="633" height="382" viewBox="0 0 633 382" fill="none" xmlns="http://www.w3.org/2000/svg">
<g clip-path="url(#clip0_62_612)">
<path d="M484.64 377.361C476.536 370.455 471.613 359.545 472.904 348.924C474.195 338.303 482.191 328.539 492.562 326.283C502.934 324.028 514.757 330.271 517.907 340.489C519.64 320.789 521.638 300.264 532.023 283.488C541.427 268.297 557.713 257.428 575.365 255.483C593.016 253.539 611.6 260.883 622.609 274.934C633.617 288.985 636.313 309.412 628.603 325.543C622.923 337.427 612.459 346.271 601.495 353.466C566.068 376.519 523.577 385.894 481.841 379.866L484.64 377.361Z" fill="#F2F2F2"/>
<path d="M605.154 261.29C590.589 273.255 577.228 286.636 565.263 301.24C546.538 324.018 531.385 349.555 520.333 376.964C519.524 378.963 522.743 379.834 523.543 377.856C541.627 333.312 570.495 294.051 607.508 263.665C609.17 262.3 606.802 259.937 605.154 261.29Z" fill="white"/>
<path d="M203.773 375.484C214.904 365.999 221.665 351.014 219.892 336.426C218.119 321.838 207.137 308.427 192.891 305.329C178.646 302.231 162.407 310.807 158.081 324.841C155.699 297.783 152.956 269.592 138.692 246.55C125.776 225.686 103.406 210.756 79.1622 208.086C54.9183 205.415 29.3925 215.502 14.2724 234.801C-0.847708 254.1 -4.5498 282.156 6.03992 304.313C13.841 320.635 28.2133 332.782 43.2719 342.665C91.3141 374.192 150.91 387.341 207.617 378.925" fill="#F2F2F2"/>
<path d="M38.2466 216.061C58.2509 232.494 76.6027 250.873 93.0366 270.932C109.473 290.971 123.944 312.57 136.245 335.426C143.121 348.248 149.298 361.438 154.748 374.939C155.859 377.685 151.437 378.88 150.339 376.165C140.685 352.363 128.742 329.573 114.68 308.122C100.687 286.748 84.6709 266.793 66.857 248.538C56.7813 238.218 46.1507 228.465 35.0132 219.322C32.7303 217.448 35.9826 214.202 38.2466 216.061L38.2466 216.061Z" fill="white"/>
<path d="M454.377 380.842H188.809V106.034C188.809 47.5665 235.972 0 293.945 0H349.241C407.214 0 454.377 47.5665 454.377 106.034V380.842Z" fill="#F2F2F2"/>
<path d="M399.081 380.842H188.808V106.034C188.75 83.6306 195.785 61.7935 208.887 43.7019C209.37 43.038 209.851 42.3827 210.348 41.7345C216.686 33.3516 224.227 25.969 232.725 19.8302C233.205 19.478 233.686 19.1319 234.176 18.7858C241.286 13.8234 248.977 9.76674 257.074 6.70816C257.555 6.52435 258.045 6.34018 258.534 6.16353C265.857 3.52778 273.449 1.72231 281.168 0.780442C281.647 0.71451 282.138 0.662918 282.629 0.611324C290.152 -0.199868 297.739 -0.199868 305.261 0.611324C305.751 0.662918 306.243 0.714504 306.727 0.781147C314.444 1.72307 322.034 3.52833 329.355 6.16357C329.845 6.34021 330.334 6.52437 330.817 6.70854C338.814 9.72854 346.415 13.7246 353.449 18.6077C353.938 18.9463 354.427 19.2924 354.909 19.6385C359.672 23.0674 364.146 26.8873 368.285 31.0594C371.604 34.4058 374.697 37.9729 377.543 41.7367C378.038 42.3827 378.52 43.0381 379.002 43.7009C392.104 61.7926 399.139 83.6302 399.081 106.034V380.842Z" fill="#CCCCCC"/>
<path d="M381.983 257.93C388.412 257.93 393.624 252.674 393.624 246.19C393.624 239.705 388.412 234.449 381.983 234.449C375.553 234.449 370.341 239.705 370.341 246.19C370.341 252.674 375.553 257.93 381.983 257.93Z" fill="#CA4365"/>
<path d="M432.622 372.611H423.702L419.458 337.911L432.624 337.911L432.622 372.611Z" fill="#FFB8B8"/>
<path d="M417.33 370.04H434.533V380.964H406.499C406.499 379.529 406.779 378.109 407.323 376.784C407.867 375.458 408.665 374.254 409.671 373.24C410.677 372.225 411.871 371.421 413.185 370.872C414.499 370.323 415.908 370.04 417.33 370.04V370.04Z" fill="#2F2E41"/>
<path d="M477.005 372.611H468.085L463.841 337.911L477.006 337.911L477.005 372.611Z" fill="#FFB8B8"/>
<path d="M461.713 370.04H478.916V380.964H450.881C450.881 379.529 451.162 378.109 451.706 376.784C452.25 375.458 453.048 374.254 454.054 373.24C455.06 372.225 456.254 371.421 457.568 370.872C458.882 370.323 460.29 370.04 461.713 370.04V370.04Z" fill="#2F2E41"/>
<path d="M387.874 248.515C387.233 247.562 386.806 246.478 386.625 245.34C386.443 244.202 386.511 243.038 386.824 241.93C387.137 240.822 387.687 239.796 388.436 238.925C389.184 238.054 390.113 237.36 391.156 236.89L421.479 152.601L436.4 160.813L401.778 241.363C402.444 243.183 402.425 245.186 401.724 246.993C401.023 248.8 399.69 250.286 397.976 251.167C396.262 252.049 394.287 252.266 392.426 251.777C390.564 251.288 388.944 250.128 387.874 248.515V248.515Z" fill="#FFB8B8"/>
<path d="M472.448 264.354C471.457 263.781 470.602 262.995 469.945 262.053C469.287 261.11 468.842 260.034 468.641 258.899C468.441 257.765 468.489 256.6 468.783 255.486C469.077 254.373 469.61 253.338 470.343 252.454L460.95 163.291L477.93 164.073L481.834 251.777C483.224 253.118 484.078 254.927 484.234 256.861C484.39 258.795 483.837 260.719 482.68 262.27C481.523 263.82 479.843 264.888 477.957 265.272C476.071 265.657 474.111 265.33 472.448 264.354V264.354Z" fill="#FFB8B8"/>
<path d="M445.36 136.988C455.229 136.988 463.23 128.919 463.23 118.965C463.23 109.011 455.229 100.942 445.36 100.942C435.49 100.942 427.49 109.011 427.49 118.965C427.49 128.919 435.49 136.988 445.36 136.988Z" fill="#FFB8B8"/>
<path d="M428.806 189.504L404.551 184.541L415.92 157.369C416.601 154.737 418.288 152.485 420.613 151.106C422.938 149.728 425.709 149.335 428.321 150.015C430.932 150.695 433.169 152.391 434.541 154.733C435.914 157.074 436.31 159.868 435.642 162.504L428.806 189.504Z" fill="#2F2F32"/>
<path d="M459.871 198.719L458.413 165.007C457.307 158.67 460.904 152.679 466.436 151.7C471.97 150.724 477.373 155.119 478.484 161.503L483.965 193.003L459.871 198.719Z" fill="#2F2F32"/>
<path d="M472.334 244.075H418.458L418.523 243.652C418.62 243.02 428.125 180.224 421.115 159.679C420.411 157.66 420.473 155.45 421.289 153.475C422.104 151.499 423.615 149.897 425.531 148.978H425.531C435.551 144.219 454.785 138.359 471.02 152.58C473.409 154.708 475.274 157.366 476.469 160.346C477.663 163.325 478.154 166.544 477.902 169.748L472.334 244.075Z" fill="#32313B"/>
<path d="M470.541 240.039C479.21 273.337 480.156 315.672 477.817 361.85L466.176 360.382L445.076 272.326L433.435 361.85L420.338 361.116C416.425 312.664 412.616 271.068 418.883 243.708L470.541 240.039Z" fill="#42415B"/>
<path d="M457.135 132.894C453.801 136.476 447.61 134.553 447.175 129.66C447.141 129.28 447.144 128.898 447.182 128.518C447.407 126.351 448.648 124.383 448.351 122.095C448.284 121.526 448.073 120.983 447.74 120.518C445.083 116.93 438.847 122.123 436.34 118.875C434.802 116.883 436.61 113.748 435.43 111.522C433.873 108.584 429.261 110.033 426.368 108.424C423.151 106.634 423.343 101.655 425.461 98.6263C428.045 94.9327 432.574 92.9617 437.047 92.6777C441.52 92.3936 445.962 93.6131 450.138 95.2544C454.882 97.1192 459.587 99.6964 462.507 103.904C466.058 109.021 466.4 115.9 464.624 121.883C463.544 125.523 459.857 129.969 457.135 132.894Z" fill="#2F2E41"/>
<path d="M611.159 381.314H73.9864C73.757 381.313 73.5373 381.221 73.3754 381.057C73.2135 380.893 73.1226 380.671 73.1226 380.44C73.1226 380.209 73.2135 379.987 73.3754 379.823C73.5373 379.659 73.757 379.567 73.9864 379.566H611.159C611.388 379.567 611.608 379.659 611.77 379.823C611.932 379.987 612.023 380.209 612.023 380.44C612.023 380.671 611.932 380.893 611.77 381.057C611.608 381.221 611.388 381.313 611.159 381.314V381.314Z" fill="#3F3D56"/>
<path d="M341.238 301.225H246.652C245.406 301.231 244.209 300.739 243.322 299.857C242.435 298.974 241.932 297.773 241.922 296.517V83.5909C241.932 82.3346 242.435 81.1335 243.322 80.2509C244.209 79.3684 245.406 78.8766 246.652 78.8834H341.238C342.484 78.8766 343.681 79.3684 344.568 80.2509C345.454 81.1335 345.958 82.3346 345.967 83.5909V296.517C345.958 297.773 345.454 298.974 344.568 299.857C343.681 300.739 342.484 301.231 341.238 301.225V301.225Z" fill="white"/>
<path d="M345.967 147.78H241.922V149.247H345.967V147.78Z" fill="#CCCCCC"/>
<path d="M346.331 231.514H242.286V232.981H346.331V231.514Z" fill="#CCCCCC"/>
<path d="M276.119 78.8833H274.664V301.958H276.119V78.8833Z" fill="#CCCCCC"/>
<path d="M312.498 78.8833H311.043V301.958H312.498V78.8833Z" fill="#CCCCCC"/>
</g>
<defs>
<clipPath id="clip0_62_612">
<rect width="633" height="381.677" fill="white"/>
</clipPath>
</defs>
</svg>
